# AST/ASF file generated using VICON BodyLanguage
# -----------------------------------------------
:version 1.10
:name VICON
:units
  mass 1.0
  length 0.45
  angle deg
:documentation
   .ast/.asf automatically generated from VICON data using
   VICON BodyBuilder and BodyLanguage model FoxedUp or BRILLIANT.MOD
:root
   order TX TY TZ RX RY RZ
   axis XYZ
   position 0 0 0  
   orientation 0 0 0 
:bonedata
  begin
     id 1 
     name lhipjoint
     direction 0.611804 -0.747784 0.257906 
     length 2.29243 
     axis 0 0 0  XYZ
  end
  begin
     id 2 
     name lfemur
     direction 0.34202 -0.939693 0  
     length 7.31159  
     axis 0 0 20  XYZ
    dof rx ry rz
    limits (-160.0 20.0)
           (-70.0 70.0)
           (-60.0 70.0)
  end
  begin
     id 3 
     name ltibia
     direction 0.34202 -0.939693 0   
     length 7.33391   
     axis 0 0 20   XYZ
    dof rx
    limits (-10.0 170.0)
  end
  begin
     id 4 
     name lfoot
     direction 0.122263 -0.335914 0.933924   
     length 1.76083   
     axis -90 7.62852e-016 20   XYZ
    dof rx rz
    limits (-45.0 90.0)
           (-70.0 20.0)
  end
  begin
     id 5 
     name ltoes
     direction 1.53533e-011 -4.2177e-011 1   
     length 0.879206   
     axis -90 7.62852e-016 20   XYZ
    dof rx
    limits (-90.0 20.0)
  end
  begin
     id 6 
     name rhipjoint
     direction -0.646469 -0.721248 0.248754   
     length 2.37677  
     axis 0 0 0  XYZ 
  end
  begin
     id 7 
     name rfemur
     direction -0.34202 -0.939693 0   
     length 7.18623   
     axis 0 0 -20   XYZ
    dof rx ry rz
    limits (-160.0 20.0)
           (-70.0 70.0)
           (-70.0 60.0)
  end
  begin
     id 8 
     name rtibia
     direction -0.34202 -0.939693 0   
     length 7.36567   
     axis 0 0 -20   XYZ
    dof rx
    limits (-10.0 170.0)
 end
 begin
     id 9 
     name rfoot
     direction -0.126681 -0.348054 0.928876   
     length 1.71902  
     axis -90 -7.62852e-016 -20   XYZ
    dof rx rz
    limits (-45.0 90.0)
           (-20.0 70.0)
  end
  begin
     id 10 
     name rtoes
     direction -1.53551e-011 -4.21898e-011 1   
     length 0.857792   
     axis -90 -7.62852e-016 -20   XYZ
    dof rx
    limits (-90.0 20.0)
  end
  begin
     id 11 
     name lowerback
     direction 0.0106509 0.999778 0.0181844   
     length 2.07668   
     axis 0 0 0   XYZ
    dof rx ry rz
    limits (-20.0 45.0)
           (-30.0 30.0)
           (-30.0 30.0)
  end
  begin
     id 12 
     name upperback
     direction -0.00456018 0.999989 -0.000590935   
     length 2.08011   
     axis 0 0 0   XYZ
    dof rx ry rz
    limits (-20.0 45.0)
           (-30.0 30.0)
           (-30.0 30.0)
  end
  begin
     id 13 
     name thorax
     direction -0.00910382 0.999916 -0.00923765   
     length 2.07397   
     axis 0 0 0   XYZ
    dof rx ry rz
    limits (-20.0 45.0)
           (-30.0 30.0)
           (-30.0 30.0)
  end
  begin
     id 14 
     name lowerneck
     direction 0.00171967 0.99778 0.0665733   
     length 1.67556   
     axis 0 0 0   XYZ
    dof rx ry rz
    limits (-20.0 45.0)
           (-30.0 30.0)
           (-30.0 30.0)
  end
  begin
     id 15 
     name upperneck
     direction -0.0143166 0.991302 -0.130828   
     length 1.68462   
     axis 0 0 0   XYZ
    dof rx ry rz
    limits (-20.0 45.0)
           (-30.0 30.0)
           (-30.0 30.0)
  end
  begin
     id 16
     name head
     direction -0.00606378 0.998665 -0.0512995  
     length 1.69269  
     axis 0 0 0   XYZ
    dof rx ry rz
    limits (-20.0 45.0)
           (-30.0 30.0)
           (-30.0 30.0)
  end
  begin
     id 17 
     name lclavicle
     direction 0.9638 0.179341 0.197297  
     length 4.12888  
     axis 0 0 0   XYZ
    dof ry rz
    limits (-20.0 10.0)
           (0.0 20.0)
  end
  begin
     id 18 
     name lhumerus
     direction 1 -4.48972e-011 -2.47351e-027   
     length 5.01834   
     axis -180 -30 -90   XYZ
    dof rx ry rz
    limits (-60.0 90.0)
           (-90.0 90.0)
           (-90.0 90.0)
  end
  begin
     id 19
     name lradius
     direction 1 -4.48965e-011 1.51591e-026   
     length 3.4869   
     axis -180 -30 -90   XYZ
    dof rx
    limits (-10.0 170.0)
  end
  begin
     id 20
     name lwrist
     direction 1 -4.48957e-011 2.70032e-026   
     length 1.74345   
     axis -1.81515e-014 90 90   XYZ
    dof ry
    limits (-180.0 0.0)
 end
  begin
     id 21 
     name lhand
     direction 1 -4.48951e-011 5.40064e-026   
     length 0.76799   
     axis -3.44607e-014 90 90   XYZ
    dof rx rz
    limits (-90.0 90.0)
           (-45.0 45.0)
  end
  begin
     id 22 
     name lfingers
     direction 1 -4.48971e-011 1.08013e-025   
     length 0.619174   
     axis -6.89214e-014 90 90   XYZ
    dof rx
    limits (0.0 90.0)
  end
  begin
     id 23
     name lthumb
     direction 0.707107 -6.34931e-011 0.707107   
     length 0.889013   
     axis -90 45 2.85299e-015   XYZ
    dof rx rz
    limits (-45.0 45.0)
           (-45.0 45.0)
  end
  begin
     id 24 
     name rclavicle
     direction -0.961409 0.252588 0.109054   
     length 4.04305  
     axis 0 0 0   XYZ 
    dof ry rz
    limits (-10.0 20.0)
           (-20.0 0.0)
  end
  begin
     id 25 
     name rhumerus
     direction -1 -4.4897e-011 1.33872e-017  
     length 4.70164   
     axis -180 30 90   XYZ
    dof rx ry rz
    limits (-90.0 60.0)
           (-90.0 90.0)
           (-90.0 90.0)
  end
  begin
     id 26 
     name rradius
     direction -1 -4.48954e-011 1.83844e-026   
     length 3.49911   
     axis -180 30 90   XYZ
    dof rx
    limits (-10.0 170.0)
  end
  begin
     id 27 
     name rwrist
     direction -1 -4.49008e-011 2.70032e-026   
     length 1.74955   
     axis -1.81515e-014 -90 -90   XYZ
    dof ry
    limits (-180.0 0.0)
  end
  begin
     id 28
     name rhand
     direction -1 -4.48916e-011 5.40064e-026   
     length 0.739335   
     axis -3.44607e-014 -90 -90   XYZ
    dof rx rz
    limits (-90.0 90.0)
           (-45.0 45.0)
  end
  begin
     id 29
     name rfingers
     direction -1 -4.48987e-011 1.08013e-025   
     length 0.596071   
     axis -6.89214e-014 -90 -90   XYZ
    dof rx
    limits (0.0 90.0)
  end
  begin
     id 30
     name rthumb
     direction -0.707107 -6.34935e-011 0.707107   
     length 0.855843   
     axis -90 -45 -2.85299e-015   XYZ
    dof rx rz
    limits (-45.0 45.0)
           (-45.0 45.0)
  end
:hierarchy
  begin
    root lhipjoint rhipjoint lowerback
    lhipjoint lfemur
    lfemur ltibia
    ltibia lfoot
    lfoot ltoes
    rhipjoint rfemur
    rfemur rtibia
    rtibia rfoot
    rfoot rtoes
    lowerback upperback
    upperback thorax
    thorax lowerneck lclavicle rclavicle
    lowerneck upperneck
    upperneck head
    lclavicle lhumerus
    lhumerus lradius
    lradius lwrist
    lwrist lhand lthumb
    lhand lfingers
    rclavicle rhumerus
    rhumerus rradius
    rradius rwrist
    rwrist rhand rthumb
    rhand rfingers
  end

#!OML:ASF I:\salsa\salsa 7_09\Patient 1\Session 1\dancermale.ASF
:FULLY-SPECIFIED
:DEGREES
942
root 9.73464 16.8927 6.78616 195.363 -33.6605 535.478
lowerback -7.99835 -0.987036 0.885792
upperback -0.4175 -1.38363 -1.24452
thorax 4.00104 -0.677144 -1.94499
lowerneck -9.16188 31.2308 1.15045
upperneck 7.62627 -29.4638 -3.71569
head 213.206 -142.29 -364.91
rclavicle -3.10601e-014 -2.78299e-015
rhumerus -57.8242 -4.23135 -95.2011
rradius 117.117
rwrist -27.3507
rhand -59.2946 9.46793
rfingers 7.12502
rthumb -31.4801 -17.8409
lclavicle -3.10601e-014 -2.78299e-015
lhumerus -40.9066 -17.1343 105.776
lradius 90.3912
lwrist 70.1251
lhand -0.909582 61.4648
lfingers 7.12502
lthumb 24.7189 809.888
rfemur -11.4616 15.9356 13.8703
rtibia 50.2748
rfoot -7.7734 -11.7608
rtoes 6.68062
lfemur -30.6345 -5.16009 -16.8592
ltibia 32.2858
lfoot -16.6386 9.67183
ltoes -6.12737
943
root 9.91271 16.8942 6.78751 195.707 -35.4643 535.813
lowerback -9.13741 -0.95062 0.544564
upperback 0.00486194 -1.30512 -0.982482
thorax 5.0975 -0.632205 -1.50534
lowerneck -9.67207 30.4639 1.01746
upperneck 7.37449 -29.4355 -3.82979
head 213.036 -141.234 -364.808
rclavicle -7.65569e-014 -8.74653e-015
rhumerus -56.5567 -2.87944 -97.0687
rradius 117.58
rwrist -27.7193
rhand -57.661 9.6035
rfingers 7.12502
rthumb -29.9225 -17.9978
lclavicle -7.65569e-014 -8.74653e-015
lhumerus -40.3718 -16.1401 104.532
lradius 91.1629
lwrist 72.3781
lhand -0.039413 60.9028
lfingers 7.12502
lthumb 25.5526 809.209
rfemur -8.48139 14.3191 15.5718
rtibia 44.4376
rfoot -10.8665 -14.2813
rtoes 5.03214
lfemur -32.1363 -5.21357 -15.7587
ltibia 32.7482
lfoot -16.0982 8.93794
ltoes -7.42863
944
root 10.102 16.8932 6.79814 195.818 -37.3868 536.263
lowerback -8.99674 -0.932302 0.171849
upperback -0.321241 -1.26655 -0.59541
thorax 4.69541 -0.631764 -0.879874
lowerneck -9.31639 29.7581 1.14546
upperneck 7.51899 -30.067 -4.06035
head 213.161 -139.89 -364.875
rclavicle 1.30452e-013 -2.54444e-014
rhumerus -56.6424 -0.686624 -99.3209
rradius 117.546
rwrist -25.0359
rhand -59.1502 8.66677
rfingers 7.12502
rthumb -31.3425 -18.6689
lclavicle 1.30452e-013 -2.54444e-014
lhumerus -40.9876 -14.4963 103.517
lradius 92.2424
lwrist 74.7321
lhand 0.878619 61.4872
lfingers 7.12502
lthumb 26.4317 809.664
rfemur -5.82799 12.2138 17.257
rtibia 39.0978
rfoot -13.0934 -16.835
rtoes 0.975742
lfemur -33.718 -4.69975 -14.662
ltibia 33.2216
lfoot -15.6381 7.94071
ltoes -8.35029
945
root 10.2883 16.8863 6.82359 195.833 -39.4515 536.678
lowerback -9.17929 -0.811726 0.163284
upperback -0.153619 -1.1069 -0.430861
thorax 4.97883 -0.550808 -0.688688
lowerneck -9.80262 28.9282 0.950769
upperneck 7.41795 -30.6464 -4.1689
head 213.181 -139.148 -364.842
rclavicle 1.7667e-014 1.33186e-014
rhumerus -55.3999 1.08692 -101.141
rradius 117.303
rwrist -23.3484
rhand -59.5314 7.60336
rfingers 7.12502
rthumb -31.7056 -19.6612
lclavicle 1.7667e-014 1.33186e-014
lhumerus -40.5722 -13.5025 101.952
lradius 93.1608
lwrist 76.3986
lhand 0.223308 61.6267
lfingers 7.12502
lthumb 25.8042 809.897
rfemur -3.93942 9.30414 18.3242
rtibia 34.7402
rfoot -15.2951 -17.8497
rtoes 1.08459
lfemur -35.4424 -3.74764 -13.9017
ltibia 34.0241
lfoot -15.3664 6.67354
ltoes -8.18418
946
root 10.4543 16.8681 6.86753 195.822 -41.5595 536.894
lowerback -7.65669 -0.710851 -0.107646
upperback -1.04757 -0.98266 -0.013642
thorax 3.21054 -0.509317 -0.055776
lowerneck -8.98532 28.2207 1.17586
upperneck 7.66799 -31.2137 -4.43048
head 213.338 -137.582 -365.09
rclavicle -1.31546e-013 -1.82882e-014
rhumerus -55.6789 2.99789 -102.11
rradius 117.012
rwrist -22.1688
rhand -59.2484 7.91582
rfingers 7.12502
rthumb -31.436 -19.4016
lclavicle -1.31546e-013 -1.82882e-014
lhumerus -41.8527 -11.6838 101.329
lradius 94.3094
lwrist 77.3083
lhand 0.170163 61.5008
lfingers 7.12502
lthumb 25.7533 809.778
rfemur -2.23418 6.28966 18.9296
rtibia 30.9364
rfoot -16.5919 -18.2088
rtoes -1.54211
lfemur -37.0783 -2.74066 -13.7692
ltibia 35.0679
lfoot -15.2547 5.48648
ltoes -7.87226
947
root 10.6174 16.8456 6.92002 196.356 -43.8056 536.51
lowerback -8.74741 -0.292734 0.206319
upperback -0.0455566 -0.409754 -0.511852
thorax 4.8561 -0.202046 -0.701436
lowerneck -10.743 26.866 0.978084
upperneck 7.16873 -32.2169 -4.33232
head 213.623 -136.395 -365.346
rclavicle -9.29815e-014 -4.17448e-015
rhumerus -52.418 4.46783 -103.208
rradius 116.103
rwrist -21.229
rhand -59.153 8.54906
rfingers 7.12502
rthumb -31.3451 -18.7861
lclavicle -9.29815e-014 -4.17448e-015
lhumerus -39.7551 -11.8353 99.3681
lradius 94.9187
lwrist 78.6413
lhand -0.86276 60.7595
lfingers 7.12502
lthumb 24.7637 809.176
rfemur -1.03839 3.53857 18.942
rtibia 27.7776
rfoot -17.3212 -17.9129
rtoes -3.92502
lfemur -39.0078 -1.94064 -14.5874
ltibia 36.4125
lfoot -15.2992 4.74977
ltoes -8.79757
948
root 10.7671 16.8223 6.92971 195.772 -44.6636 536.322
lowerback -7.70622 0.434354 -0.257917
upperback 0.0379435 0.614635 -0.707288
thorax 4.36781 0.29832 -0.518715
lowerneck -10.7522 25.7277 1.23493
upperneck 7.31662 -33.7019 -4.4313
head 214.008 -135.168 -365.619
rclavicle -1.90336e-014 2.06736e-014
rhumerus -51.1399 6.35501 -103.871
rradius 115.232
rwrist -20.139
rhand -60.4316 7.12684
rfingers 7.12502
rthumb -32.5626 -19.9646
lclavicle -1.90336e-014 2.06736e-014
lhumerus -39.588 -10.955 98.1745
lradius 95.6199
lwrist 79.7054
lhand -1.1251 59.5646
lfingers 7.12502
lthumb 24.5123 808.016
rfemur 0.973365 3.08725 19.2077
rtibia 25.1468
rfoot -17.8526 -17.5434
rtoes -5.24315
lfemur -39.215 0.411858 -15.8857
ltibia 37.3403
lfoot -15.6604 4.34074
ltoes -11.0285
949
root 10.899 16.8067 6.94013 195.279 -45.6009 535.79
lowerback -6.59351 1.07913 -0.907435
upperback 0.225507 1.52985 -0.857106
thorax 3.93061 0.743702 -0.225429
lowerneck -10.7952 24.7058 1.29329
upperneck 7.37255 -34.6799 -4.45348
head 213.979 -134.807 -365.594
rclavicle -3.598e-014 1.19271e-015
rhumerus -49.3617 8.39045 -103.971
rradius 114.115
rwrist -19.2912
rhand -61.6263 5.68062
rfingers 7.12502
rthumb -33.6987 -21.1695
lclavicle -3.598e-014 1.19271e-015
lhumerus -39.8543 -9.92775 97.2916
lradius 97.0263
lwrist 80.7927
lhand -1.78419 58.5151
lfingers 7.12502
lthumb 23.8804 807.05
rfemur 2.82951 3.25273 19.4516
rtibia 23.264
rfoot -18.4822 -17.7117
rtoes -6.49918
lfemur -39.3914 2.99062 -17.9341
ltibia 38.6368
lfoot -16.4009 4.05296
ltoes -13.5847
950
root 11.0082 16.7851 6.95215 195.383 -47.0173 534.757
lowerback -5.47932 1.51117 -1.62258
upperback 0.107599 2.13747 -1.05991
thorax 3.16334 1.03904 -0.00900864
lowerneck -10.5202 23.628 1.59198
upperneck 7.57969 -35.8228 -4.6462
head 213.985 -133.831 -365.37
rclavicle -4.22914e-014 1.41137e-014
rhumerus -47.4942 9.90235 -103.561
rradius 112.884
rwrist -19.3996
rhand -61.661 6.04625
rfingers 7.12502
rthumb -33.7316 -20.7967
lclavicle -4.22914e-014 1.41137e-014
lhumerus -40.5061 -9.08753 96.4881
lradius 98.5115
lwrist 81.3408
lhand -0.771257 58.5833
lfingers 7.12502
lthumb 24.8514 806.988
rfemur 4.27684 3.13871 19.5039
rtibia 21.9006
rfoot -19.1657 -18.3456
rtoes -7.17569
lfemur -39.988 5.04936 -20.6378
ltibia 40.4372
lfoot -17.224 4.61549
ltoes -14.9069
951
root 11.1004 16.7576 6.95543 195.414 -48.593 533.716
lowerback -4.70171 1.8484 -2.14429
upperback 0.236094 2.60436 -1.28381
thorax 2.84201 1.26698 0.0638379
lowerneck -10.437 22.662 1.76684
upperneck 7.75031 -36.9413 -4.77878
head 214.074 -133.118 -365.301
rclavicle 9.23355e-014 -1.09332e-014
rhumerus -44.7028 11.1032 -102.731
rradius 111.269
rwrist -19.9303
rhand -60.6872 5.20716
rfingers 7.12502
rthumb -32.8059 -21.8338
lclavicle 9.23355e-014 -1.09332e-014
lhumerus -40.4249 -9.35282 96.1158
lradius 99.1756
lwrist 82.863
lhand -1.30669 56.5461
lfingers 7.12502
lthumb 24.3382 805.021
rfemur 5.78836 2.82536 19.6944
rtibia 20.7404
rfoot -19.8547 -19.1761
rtoes -6.26297
lfemur -40.4247 6.80152 -23.3628
ltibia 42.4905
lfoot -17.8712 6.23512
ltoes -16.1602
952
root 11.1785 16.7264 6.95284 194.975 -49.8981 532.446
lowerback -3.2374 2.27096 -2.73096
upperback 0.446046 3.15086 -1.54417
thorax 2.21148 1.53762 0.101194
lowerneck -10.1527 21.7922 1.92057
upperneck 8.01956 -38.1291 -4.90594
head 214.214 -132.656 -365.356
rclavicle -1.80894e-014 -1.0138e-014
rhumerus -41.9389 12.4618 -102.152
rradius 108.969
rwrist -18.1029
rhand -61.1862 0.356513
rfingers 7.12502
rthumb -33.2804 -26.5841
lclavicle -1.80894e-014 -1.0138e-014
lhumerus -39.7788 -7.9103 94.3395
lradius 100.289
lwrist 82.263
lhand -0.133609 56.3649
lfingers 7.12502
lthumb 25.4624 804.684
rfemur 8.07486 2.46272 19.6774
rtibia 19.4854
rfoot -20.4352 -20.0141
rtoes -4.82974
lfemur -39.7938 8.49428 -26.0169
ltibia 44.3235
lfoot -18.2996 8.40984
ltoes -15.3216
953
root 11.2467 16.6965 6.94831 194.538 -51.1246 531.632
lowerback -2.1682 2.67801 -3.13307
upperback 0.603943 3.66465 -1.55098
thorax 1.73923 1.79396 0.290315
lowerneck -9.92159 21.0913 1.76942
upperneck 8.29477 -39.0998 -5.08904
head 214.315 -132.5 -365.389
rclavicle 2.13694e-015 -4.37326e-015
rhumerus -38.8767 13.3362 -100.919
rradius 107.034
rwrist -18.2826
rhand -60.7852 -1.78037
rfingers 7.12502
rthumb -32.899 -28.8018
lclavicle 2.13694e-015 -4.37326e-015
lhumerus -39.2245 -6.40134 92.89
lradius 101.292
lwrist 81.3758
lhand 1.07587 54.8343
lfingers 7.12502
lthumb 26.6205 802.983
rfemur 9.85484 1.87536 19.8345
rtibia 18.411
rfoot -20.7735 -20.6689
rtoes -3.95443
lfemur -39.3599 10.0631 -28.094
ltibia 46.1065
lfoot -18.6756 10.2383
ltoes -13.1038
954
root 11.3062 16.6685 6.93722 194.321 -52.1263 531.11
lowerback -1.6969 3.08707 -3.5312
upperback 0.788759 4.20216 -1.39427
thorax 1.6108 2.05783 0.664686
lowerneck -9.93603 20.51 1.34876
upperneck 8.44987 -39.7203 -5.25559
head 214.265 -132.693 -365.288
rclavicle 4.14963e-014 1.43125e-014
rhumerus -35.4815 13.9214 -99.4298
rradius 105.115
rwrist -18.2298
rhand -59.8801 -3.79741
rfingers 7.12502
rthumb -32.0377 -30.9958
lclavicle 4.14963e-014 1.43125e-014
lhumerus -38.5259 -5.322 91.9756
lradius 101.999
lwrist 81.441
lhand -0.336598 50.9056
lfingers 7.12502
lthumb 25.2679 799.252
rfemur 10.8224 1.11215 19.9132
rtibia 17.9335
rfoot -20.9753 -20.8225
rtoes -3.45858
lfemur -39.2158 11.5819 -29.8002
ltibia 47.6944
lfoot -19.2011 11.4672
ltoes -13.0199
955
root 11.3534 16.6469 6.92039 194.415 -52.9489 530.933
lowerback -1.94618 3.61169 -3.46835
upperback 0.860011 4.91551 -1.47389
thorax 1.81044 2.41082 0.585955
lowerneck -10.0578 19.761 1.26819
upperneck 8.60194 -40.754 -5.3424
head 214.444 -132.482 -365.391
rclavicle 5.83433e-014 -1.51076e-014
rhumerus -31.9432 13.8051 -98.343
rradius 103.191
rwrist -17.2702
rhand -59.1926 -7.12798
rfingers 7.12502
rthumb -31.3828 -34.4558
lclavicle 5.83433e-014 -1.51076e-014
lhumerus -37.7888 -5.30434 91.2143
lradius 102.782
lwrist 80.0666
lhand -1.36409 51.9307
lfingers 7.12502
lthumb 24.2832 800.413
rfemur 10.7397 0.220445 19.981
rtibia 18.2195
rfoot -21.1306 -20.5689
rtoes -3.52089
lfemur -39.4261 12.7169 -31.1325
ltibia 48.888
lfoot -19.7149 12.228
ltoes -14.7607
956
root 11.3826 16.6327 6.89725 194.765 -53.5894 531.008
lowerback -2.65732 3.97491 -3.36593
upperback 0.772077 5.43015 -1.38305
thorax 2.10169 2.66566 0.687471
lowerneck -10.0932 19.2781 0.94363
upperneck 8.67267 -41.0741 -5.4677
head 214.237 -132.727 -365.12
rclavicle -8.34399e-014 9.14409e-015
rhumerus -28.4331 13.9086 -97.2042
rradius 100.712
rwrist -15.5684
rhand -58.58 -7.0135
rfingers 7.12502
rthumb -30.799 -34.4531
lclavicle -8.34399e-014 9.14409e-015
lhumerus -37.2069 -4.81068 90.602
lradius 103.783
lwrist 78.5824
lhand -3.13884 50.9943
lfingers 7.12502
lthumb 22.5807 799.694
rfemur 9.90248 -0.6464 20.0724
rtibia 19.0051
rfoot -21.1551 -20.1881
rtoes -4.38888
lfemur -39.8118 13.4954 -32.1621
ltibia 49.6333
lfoot -20.2419 12.1829
ltoes -16.3112
